HIERARCHY
ROOT root
{
	OFFSET 0.000000 0.000000 0.000000
	CHANNELS 6 Xposition Yposition Zposition Zrotation Yrotation Xrotation
	JOINT lhip
	{
		OFFSET 0.058581 -0.082280 -0.017664
		CHANNELS 3 Zrotation Yrotation Xrotation
		JOINT lknee
		{
			OFFSET 0.043451 -0.386469 0.008037
			CHANNELS 3 Zrotation Yrotation Xrotation
			JOINT lankle
			{
				OFFSET -0.014790 -0.426874 -0.037428
				CHANNELS 3 Zrotation Yrotation Xrotation
				JOINT ltoe
				{
					OFFSET 0.041054 -0.060286 0.122042
					CHANNELS 3 Zrotation Yrotation Xrotation
					End Site
					{
						OFFSET 0.000000 0.000000 0.000000
					}
				}
			}
		}
	}
	JOINT rhip
	{
		OFFSET -0.060310 -0.090513 -0.013543
		CHANNELS 3 Zrotation Yrotation Xrotation
		JOINT rknee
		{
			OFFSET -0.043257 -0.383688 -0.004843
			CHANNELS 3 Zrotation Yrotation Xrotation
			JOINT rankle
			{
				OFFSET 0.019056 -0.420046 -0.034562
				CHANNELS 3 Zrotation Yrotation Xrotation
				JOINT rtoe
				{
					OFFSET -0.034840 -0.062106 0.130323
					CHANNELS 3 Zrotation Yrotation Xrotation
					End Site
					{
						OFFSET 0.000000 0.000000 0.000000
					}
				}
			}
		}
	}
	JOINT lowerback
	{
		OFFSET 0.004439 0.124404 -0.038385
		CHANNELS 3 Zrotation Yrotation Xrotation
		JOINT upperback
		{
			OFFSET 0.004488 0.137956 0.026820
			CHANNELS 3 Zrotation Yrotation Xrotation
			JOINT chest
			{
				OFFSET -0.002265 0.056032 0.002855
				CHANNELS 3 Zrotation Yrotation Xrotation
				JOINT lowerneck
				{
					OFFSET -0.013390 0.211636 -0.033468
					CHANNELS 3 Zrotation Yrotation Xrotation
					JOINT upperneck
					{
						OFFSET 0.010113 0.088937 0.050410
						CHANNELS 3 Zrotation Yrotation Xrotation
						End Site
						{
							OFFSET 0.000000 0.000000 0.000000
						}
					}
				}
				JOINT lclavicle
				{
					OFFSET 0.071702 0.114000 -0.018898
					CHANNELS 3 Zrotation Yrotation Xrotation
					JOINT lshoulder
					{
						OFFSET 0.122921 0.045205 -0.019046
						CHANNELS 3 Zrotation Yrotation Xrotation
						JOINT lelbow
						{
							OFFSET 0.255332 -0.015649 -0.022946
							CHANNELS 3 Zrotation Yrotation Xrotation
							JOINT lwrist
							{
								OFFSET 0.265709 0.012698 -0.007375
								CHANNELS 3 Zrotation Yrotation Xrotation
								End Site
								{
									OFFSET 0.000000 0.000000 0.000000
								}
							}
						}
					}
				}
				JOINT rclavicle
				{
					OFFSET -0.082954 0.112472 -0.023707
					CHANNELS 3 Zrotation Yrotation Xrotation
					JOINT rshoulder
					{
						OFFSET -0.113228 0.046853 -0.008472
						CHANNELS 3 Zrotation Yrotation Xrotation
						JOINT relbow
						{
							OFFSET -0.260127 -0.014369 -0.031269
							CHANNELS 3 Zrotation Yrotation Xrotation
							JOINT rwrist
							{
								OFFSET -0.269108 0.006794 -0.006027
								CHANNELS 3 Zrotation Yrotation Xrotation
								End Site
								{
									OFFSET 0.000000 0.000000 0.000000
								}
							}
						}
					}
				}
			}
		}
	}
}
MOTION
Frames: 11
Frame Time: 0.033333
0.506536 0.242885 0.996449 90.114007 3.521438 95.023855 7.899983 4.002897 -3.645300 2.608009 -3.959308 -5.003034 -1.242948 10.232407 -3.864844 0.000000 -0.000000 0.000000 -0.922801 -0.601417 -8.100899 -1.480447 3.428673 4.924785 4.120309 -5.835205 -5.253199 0.000000 -0.000000 0.000000 0.996784 -2.327665 -0.889033 2.708799 -5.423718 -5.979803 -1.897181 2.523799 -6.369369 0.194809 -11.723944 10.989952 5.276368 -10.454467 -1.003267 -21.488512 8.604828 -6.389142 -59.195309 -0.645113 26.494473 9.060714 -16.305987 8.724034 -8.589250 -6.049746 11.147520 25.609260 -1.250139 -2.717286 53.074710 1.870814 18.407521 -5.166548 10.739200 1.032567 8.563844 3.087598 -0.805023 
0.506583 0.243613 0.992652 90.036288 3.813659 94.825258 8.059387 3.951648 -3.367465 2.778214 -3.883114 -5.456520 -1.488993 10.183602 -3.357542 0.000000 -0.000000 0.000000 -0.784245 -0.737125 -7.665483 -1.253503 3.697702 4.093012 4.307250 -6.095857 -4.628434 0.000000 -0.000000 0.000000 -0.445222 -0.674110 -3.166598 4.068847 -4.056730 0.515904 -0.424160 0.398482 -6.498419 0.409433 -11.483974 7.130517 4.827355 -11.861069 -4.293826 -22.848899 7.641456 -6.998860 -60.714035 -3.879542 24.753486 9.197920 -14.703443 8.509283 -10.038452 -6.573956 11.938285 23.591607 -2.125395 -4.245615 53.252261 4.300987 16.583763 -5.150111 10.761529 0.629937 9.278978 2.173636 0.023408 
0.508199 0.243265 0.991517 89.958213 3.822880 95.109296 7.926681 3.925609 -3.355791 2.964254 -3.822722 -5.936292 -1.729826 10.195144 -3.199132 0.000000 -0.000000 0.000000 -0.771699 -0.789914 -7.516704 -1.274734 3.590698 3.174949 4.531228 -6.115680 -4.499681 0.000000 -0.000000 0.000000 -0.494299 -0.671733 -3.343881 4.021758 -4.096852 0.108086 -0.299667 0.408567 -6.146814 0.276569 -11.381715 7.110343 4.947314 -11.870584 -4.403525 -22.579169 7.445425 -6.884726 -60.999395 -3.981624 24.689475 9.231025 -13.559046 8.137263 -9.920756 -7.235213 11.098111 23.564827 -1.800515 -4.088023 53.145495 4.403588 16.512914 -4.913307 9.914978 0.222306 8.912816 2.381283 -0.300914 
0.510670 0.243136 0.990385 89.971649 3.934995 95.176323 7.931461 3.949918 -3.065756 3.098173 -3.864523 -6.418309 -1.845012 10.171509 -3.186433 0.000000 -0.000000 0.000000 -0.540895 -0.965580 -6.972121 -1.389633 3.449535 2.044761 4.526317 -6.213779 -4.482059 0.000000 -0.000000 0.000000 -0.502189 -0.760959 -3.213842 3.982606 -4.198648 -0.178945 -0.081101 0.486004 -5.974371 0.101377 -11.547804 7.237069 5.147861 -11.784836 -4.549948 -22.262599 6.987274 -6.573549 -61.189793 -4.062768 24.502277 8.698161 -12.282628 7.475133 -9.433749 -7.418741 9.816355 23.258056 -1.119797 -3.688314 53.246314 4.462729 16.423620 -4.582203 8.696889 -0.839432 8.499612 2.678702 -1.277085 
0.511086 0.243224 0.990119 89.940694 3.957327 95.236394 7.919935 3.932070 -3.098444 3.118524 -3.829563 -6.426811 -1.867748 10.157604 -3.224276 0.000000 -0.000000 0.000000 -0.507685 -1.005062 -6.946316 -1.417214 3.448972 1.874224 4.535105 -6.169882 -4.430996 0.000000 -0.000000 0.000000 -0.507444 -0.736628 -3.126690 3.991222 -4.212737 -0.295564 -0.035001 0.483655 -5.960951 0.052247 -11.582879 7.207527 5.147824 -11.793753 -4.548222 -22.256125 6.955927 -6.512348 -61.170393 -4.052604 24.470147 8.668700 -12.082265 7.421466 -9.303337 -7.535387 9.627842 23.259018 -1.065351 -3.659404 53.246110 4.453727 16.391298 -4.600737 8.491970 -0.968499 8.388892 2.708367 -1.385306 
0.512026 0.243433 0.989937 89.847047 3.973733 95.290273 7.884641 3.901862 -3.092954 3.130432 -3.823687 -6.410725 -1.852723 10.214219 -3.330480 0.000000 -0.000000 0.000000 -0.460238 -1.062574 -6.831187 -1.484623 3.548630 1.577154 4.546274 -6.165124 -4.364951 0.000000 -0.000000 0.000000 -0.407706 -0.553912 -2.626919 3.903242 -4.135475 -0.812384 -0.045083 0.352508 -6.071607 0.044957 -11.740752 6.970112 5.100634 -11.824175 -4.270509 -22.186183 7.087340 -6.399990 -61.096569 -3.960904 24.390695 8.534202 -11.868045 7.537718 -8.998598 -7.800429 9.121262 23.319328 -1.274598 -3.681712 53.275186 4.316742 16.429006 -4.613067 8.318439 -0.940661 8.245467 2.681186 -1.659439 
0.513156 0.243762 0.989479 89.691820 3.950964 95.394847 7.722080 3.884000 -3.092293 3.291174 -3.733781 -6.444832 -1.850087 10.241779 -3.400661 0.000000 -0.000000 0.000000 -0.527142 -0.982500 -6.839496 -1.496861 3.462418 1.426830 4.560510 -6.055633 -4.299542 0.000000 -0.000000 0.000000 -0.613042 -0.664700 -3.000772 3.980747 -4.135266 -0.548259 0.082333 0.487436 -5.849558 0.020108 -11.595001 7.047297 5.299102 -11.912898 -4.459034 -22.096577 6.919505 -6.256923 -61.271282 -4.077015 24.186927 8.460956 -11.429914 7.056014 -8.739608 -8.275015 8.583221 23.209575 -1.021252 -3.491590 53.324060 4.449444 16.286540 -4.597291 8.131165 -1.162826 7.902450 2.850955 -1.871390 
0.513814 0.244206 0.989290 89.559629 3.996307 95.273843 7.690324 3.910595 -2.896905 3.369559 -3.691890 -6.436075 -1.793292 10.264490 -3.494837 0.000000 -0.000000 0.000000 -0.515533 -1.007807 -6.680059 -1.502544 3.477510 1.384239 4.631688 -6.017903 -4.253558 0.000000 -0.000000 0.000000 -0.571426 -0.640013 -2.564720 3.947235 -4.071009 -0.888336 0.143639 0.514707 -5.646478 0.050042 -11.651821 6.870461 5.373963 -11.877178 -4.489158 -22.004530 6.875117 -6.170422 -61.365961 -4.005997 24.090982 8.554643 -11.553059 7.102077 -8.612827 -8.281341 8.328982 23.094974 -0.997645 -3.436497 53.437054 4.412607 16.226776 -4.679774 8.291950 -1.204983 7.776529 2.848112 -2.084509 
0.514737 0.244436 0.989068 89.439454 4.039363 95.264227 7.725690 3.940990 -2.792018 3.343139 -3.574826 -6.446685 -1.749730 10.216410 -3.585920 0.000000 -0.000000 0.000000 -0.464418 -1.075915 -6.595945 -1.544392 3.539485 1.276022 4.671623 -5.925548 -4.219980 0.000000 -0.000000 0.000000 -0.563778 -0.602317 -2.403687 3.936553 -4.022297 -1.071621 0.189430 0.500503 -5.520849 0.151941 -11.668485 6.757167 5.312460 -11.827772 -4.390757 -21.955252 6.932361 -6.151807 -61.404068 -3.951226 24.042873 8.584280 -11.760248 7.162290 -8.538683 -8.145763 8.230916 23.040985 -1.045276 -3.488302 53.503732 4.403838 16.265415 -4.681208 8.364112 -1.228465 7.746028 2.838981 -2.169709 
0.515587 0.244864 0.988947 89.332334 4.014317 95.382624 7.667229 3.933408 -2.796738 3.321655 -3.502928 -6.520693 -1.740686 10.221034 -3.602976 0.000000 -0.000000 0.000000 -0.535239 -1.060158 -6.654125 -1.543323 3.546925 1.202458 4.759940 -5.893291 -4.149130 0.000000 -0.000000 0.000000 -0.622202 -0.581129 -2.595856 3.953198 -4.040533 -0.935277 0.174141 0.528041 -5.530993 0.233825 -11.587391 6.794799 5.294360 -11.826102 -4.355778 -21.945505 6.898180 -6.089627 -61.382241 -3.886830 24.027754 8.685308 -12.158463 6.991846 -8.810413 -7.977917 8.368455 23.110293 -0.979691 -3.416786 53.451453 4.358874 16.261207 -4.750682 8.575386 -1.279604 7.933357 2.857973 -2.082903 
0.516088 0.245283 0.988906 89.287910 4.011401 95.531180 7.603588 3.897234 -2.902640 3.344870 -3.443267 -6.536956 -1.704345 10.261117 -3.650418 0.000000 -0.000000 0.000000 -0.561229 -1.034559 -6.783763 -1.562836 3.559645 1.174322 4.781781 -5.915357 -4.107285 0.000000 -0.000000 0.000000 -0.646923 -0.583729 -2.676085 3.981064 -4.066994 -0.966182 0.177676 0.523358 -5.564028 0.233000 -11.575025 6.817176 5.256865 -11.812017 -4.346729 -21.924260 6.941792 -6.133727 -61.471275 -3.859367 24.066458 8.747425 -12.070435 6.882607 -8.903247 -7.973753 8.400704 23.101645 -0.986501 -3.434836 53.459618 4.384942 16.288229 -4.749216 8.635886 -1.343427 7.973665 2.873682 -2.086100 
